{
	"asset":{
		"generator":"Khronos glTF Blender I/O v4.5.51",
		"version":"2.0"
	},
	"extensionsUsed":[
		"KHR_materials_specular"
	],
	"scene":0,
	"scenes":[
		{
			"name":"Scene",
			"nodes":[
				30
			]
		}
	],
	"nodes":[
		{
			"mesh":0,
			"name":"n30b10"
		},
		{
			"children":[
				0
			],
			"mesh":1,
			"name":"n29b8"
		},
		{
			"children":[
				1
			],
			"mesh":2,
			"name":"n28b0"
		},
		{
			"children":[
				2
			],
			"mesh":3,
			"name":"n27b9"
		},
		{
			"children":[
				3
			],
			"mesh":4,
			"name":"n26b27"
		},
		{
			"children":[
				4
			],
			"mesh":5,
			"name":"n25b17"
		},
		{
			"children":[
				5
			],
			"mesh":6,
			"name":"n24b16"
		},
		{
			"children":[
				6
			],
			"mesh":7,
			"name":"n23b29"
		},
		{
			"children":[
				7
			],
			"mesh":8,
			"name":"n22b25"
		},
		{
			"children":[
				8
			],
			"mesh":9,
			"name":"n21b26"
		},
		{
			"children":[
				9
			],
			"mesh":10,
			"name":"n20b11"
		},
		{
			"children":[
				10
			],
			"mesh":11,
			"name":"n19b30"
		},
		{
			"children":[
				11
			],
			"mesh":12,
			"name":"n18b28"
		},
		{
			"children":[
				12
			],
			"mesh":13,
			"name":"n17b24"
		},
		{
			"children":[
				13
			],
			"mesh":14,
			"name":"n16b19"
		},
		{
			"children":[
				14
			],
			"mesh":15,
			"name":"n15b20"
		},
		{
			"children":[
				15
			],
			"mesh":16,
			"name":"n14b18"
		},
		{
			"children":[
				16
			],
			"mesh":17,
			"name":"n13b23"
		},
		{
			"children":[
				17
			],
			"mesh":18,
			"name":"n12b2"
		},
		{
			"children":[
				18
			],
			"mesh":19,
			"name":"n11b1"
		},
		{
			"children":[
				19
			],
			"mesh":20,
			"name":"n10b6"
		},
		{
			"children":[
				20
			],
			"mesh":21,
			"name":"n9b7"
		},
		{
			"children":[
				21
			],
			"mesh":22,
			"name":"n8b4"
		},
		{
			"children":[
				22
			],
			"mesh":23,
			"name":"n7b5"
		},
		{
			"children":[
				23
			],
			"mesh":24,
			"name":"n6b3"
		},
		{
			"children":[
				24
			],
			"mesh":25,
			"name":"n5b12"
		},
		{
			"children":[
				25
			],
			"mesh":26,
			"name":"n4b22"
		},
		{
			"children":[
				26
			],
			"mesh":27,
			"name":"n3b14"
		},
		{
			"children":[
				27
			],
			"mesh":28,
			"name":"n2b13"
		},
		{
			"children":[
				28
			],
			"mesh":29,
			"name":"n1b15"
		},
		{
			"children":[
				29
			],
			"mesh":30,
			"name":"n0b21"
		}
	],
	"animations":[
		{
			"channels":[
				{
					"sampler":0,
					"target":{
						"node":30,
						"path":"translation"
					}
				},
				{
					"sampler":1,
					"target":{
						"node":30,
						"path":"rotation"
					}
				},
				{
					"sampler":2,
					"target":{
						"node":30,
						"path":"scale"
					}
				}
			],
			"name":"n0b21Action",
			"samplers":[
				{
					"input":124,
					"interpolation":"LINEAR",
					"output":125
				},
				{
					"input":124,
					"interpolation":"LINEAR",
					"output":126
				},
				{
					"input":124,
					"interpolation":"LINEAR",
					"output":127
				}
			]
		},
		{
			"channels":[
				{
					"sampler":0,
					"target":{
						"node":29,
						"path":"translation"
					}
				},
				{
					"sampler":1,
					"target":{
						"node":29,
						"path":"rotation"
					}
				},
				{
					"sampler":2,
					"target":{
						"node":29,
						"path":"scale"
					}
				}
			],
			"name":"n1b15Action",
			"samplers":[
				{
					"input":124,
					"interpolation":"LINEAR",
					"output":125
				},
				{
					"input":124,
					"interpolation":"LINEAR",
					"output":126
				},
				{
					"input":124,
					"interpolation":"LINEAR",
					"output":127
				}
			]
		},
		{
			"channels":[
				{
					"sampler":0,
					"target":{
						"node":28,
						"path":"translation"
					}
				},
				{
					"sampler":1,
					"target":{
						"node":28,
						"path":"rotation"
					}
				},
				{
					"sampler":2,
					"target":{
						"node":28,
						"path":"scale"
					}
				}
			],
			"name":"n2b13Action",
			"samplers":[
				{
					"input":124,
					"interpolation":"LINEAR",
					"output":125
				},
				{
					"input":124,
					"interpolation":"LINEAR",
					"output":126
				},
				{
					"input":124,
					"interpolation":"LINEAR",
					"output":127
				}
			]
		},
		{
			"channels":[
				{
					"sampler":0,
					"target":{
						"node":27,
						"path":"translation"
					}
				},
				{
					"sampler":1,
					"target":{
						"node":27,
						"path":"rotation"
					}
				},
				{
					"sampler":2,
					"target":{
						"node":27,
						"path":"scale"
					}
				}
			],
			"name":"n3b14Action",
			"samplers":[
				{
					"input":124,
					"interpolation":"LINEAR",
					"output":125
				},
				{
					"input":124,
					"interpolation":"LINEAR",
					"output":126
				},
				{
					"input":124,
					"interpolation":"LINEAR",
					"output":127
				}
			]
		},
		{
			"channels":[
				{
					"sampler":0,
					"target":{
						"node":26,
						"path":"translation"
					}
				},
				{
					"sampler":1,
					"target":{
						"node":26,
						"path":"rotation"
					}
				},
				{
					"sampler":2,
					"target":{
						"node":26,
						"path":"scale"
					}
				}
			],
			"name":"n4b22Action",
			"samplers":[
				{
					"input":124,
					"interpolation":"LINEAR",
					"output":125
				},
				{
					"input":124,
					"interpolation":"LINEAR",
					"output":126
				},
				{
					"input":124,
					"interpolation":"LINEAR",
					"output":127
				}
			]
		},
		{
			"channels":[
				{
					"sampler":0,
					"target":{
						"node":25,
						"path":"translation"
					}
				},
				{
					"sampler":1,
					"target":{
						"node":25,
						"path":"rotation"
					}
				},
				{
					"sampler":2,
					"target":{
						"node":25,
						"path":"scale"
					}
				}
			],
			"name":"n5b12Action",
			"samplers":[
				{
					"input":124,
					"interpolation":"LINEAR",
					"output":125
				},
				{
					"input":124,
					"interpolation":"LINEAR",
					"output":126
				},
				{
					"input":124,
					"interpolation":"LINEAR",
					"output":127
				}
			]
		},
		{
			"channels":[
				{
					"sampler":0,
					"target":{
						"node":24,
						"path":"translation"
					}
				},
				{
					"sampler":1,
					"target":{
						"node":24,
						"path":"rotation"
					}
				},
				{
					"sampler":2,
					"target":{
						"node":24,
						"path":"scale"
					}
				}
			],
			"name":"n6b3Action",
			"samplers":[
				{
					"input":124,
					"interpolation":"LINEAR",
					"output":125
				},
				{
					"input":124,
					"interpolation":"LINEAR",
					"output":126
				},
				{
					"input":124,
					"interpolation":"LINEAR",
					"output":127
				}
			]
		},
		{
			"channels":[
				{
					"sampler":0,
					"target":{
						"node":23,
						"path":"translation"
					}
				},
				{
					"sampler":1,
					"target":{
						"node":23,
						"path":"rotation"
					}
				},
				{
					"sampler":2,
					"target":{
						"node":23,
						"path":"scale"
					}
				}
			],
			"name":"n7b5Action",
			"samplers":[
				{
					"input":124,
					"interpolation":"LINEAR",
					"output":125
				},
				{
					"input":124,
					"interpolation":"LINEAR",
					"output":126
				},
				{
					"input":124,
					"interpolation":"LINEAR",
					"output":127
				}
			]
		},
		{
			"channels":[
				{
					"sampler":0,
					"target":{
						"node":22,
						"path":"translation"
					}
				},
				{
					"sampler":1,
					"target":{
						"node":22,
						"path":"rotation"
					}
				},
				{
					"sampler":2,
					"target":{
						"node":22,
						"path":"scale"
					}
				}
			],
			"name":"n8b4Action",
			"samplers":[
				{
					"input":124,
					"interpolation":"LINEAR",
					"output":125
				},
				{
					"input":124,
					"interpolation":"LINEAR",
					"output":126
				},
				{
					"input":124,
					"interpolation":"LINEAR",
					"output":127
				}
			]
		},
		{
			"channels":[
				{
					"sampler":0,
					"target":{
						"node":21,
						"path":"translation"
					}
				},
				{
					"sampler":1,
					"target":{
						"node":21,
						"path":"rotation"
					}
				},
				{
					"sampler":2,
					"target":{
						"node":21,
						"path":"scale"
					}
				}
			],
			"name":"n9b7Action",
			"samplers":[
				{
					"input":124,
					"interpolation":"LINEAR",
					"output":125
				},
				{
					"input":124,
					"interpolation":"LINEAR",
					"output":126
				},
				{
					"input":124,
					"interpolation":"LINEAR",
					"output":127
				}
			]
		},
		{
			"channels":[
				{
					"sampler":0,
					"target":{
						"node":20,
						"path":"translation"
					}
				},
				{
					"sampler":1,
					"target":{
						"node":20,
						"path":"rotation"
					}
				},
				{
					"sampler":2,
					"target":{
						"node":20,
						"path":"scale"
					}
				}
			],
			"name":"n10b6Action",
			"samplers":[
				{
					"input":124,
					"interpolation":"LINEAR",
					"output":125
				},
				{
					"input":124,
					"interpolation":"LINEAR",
					"output":126
				},
				{
					"input":124,
					"interpolation":"LINEAR",
					"output":127
				}
			]
		},
		{
			"channels":[
				{
					"sampler":0,
					"target":{
						"node":19,
						"path":"translation"
					}
				},
				{
					"sampler":1,
					"target":{
						"node":19,
						"path":"rotation"
					}
				},
				{
					"sampler":2,
					"target":{
						"node":19,
						"path":"scale"
					}
				}
			],
			"name":"n11b1Action",
			"samplers":[
				{
					"input":124,
					"interpolation":"LINEAR",
					"output":125
				},
				{
					"input":124,
					"interpolation":"LINEAR",
					"output":126
				},
				{
					"input":124,
					"interpolation":"LINEAR",
					"output":127
				}
			]
		},
		{
			"channels":[
				{
					"sampler":0,
					"target":{
						"node":18,
						"path":"translation"
					}
				},
				{
					"sampler":1,
					"target":{
						"node":18,
						"path":"rotation"
					}
				},
				{
					"sampler":2,
					"target":{
						"node":18,
						"path":"scale"
					}
				}
			],
			"name":"n12b2Action",
			"samplers":[
				{
					"input":124,
					"interpolation":"LINEAR",
					"output":125
				},
				{
					"input":124,
					"interpolation":"LINEAR",
					"output":126
				},
				{
					"input":124,
					"interpolation":"LINEAR",
					"output":127
				}
			]
		},
		{
			"channels":[
				{
					"sampler":0,
					"target":{
						"node":17,
						"path":"translation"
					}
				},
				{
					"sampler":1,
					"target":{
						"node":17,
						"path":"rotation"
					}
				},
				{
					"sampler":2,
					"target":{
						"node":17,
						"path":"scale"
					}
				}
			],
			"name":"n13b23Action",
			"samplers":[
				{
					"input":124,
					"interpolation":"LINEAR",
					"output":125
				},
				{
					"input":124,
					"interpolation":"LINEAR",
					"output":126
				},
				{
					"input":124,
					"interpolation":"LINEAR",
					"output":127
				}
			]
		},
		{
			"channels":[
				{
					"sampler":0,
					"target":{
						"node":16,
						"path":"translation"
					}
				},
				{
					"sampler":1,
					"target":{
						"node":16,
						"path":"rotation"
					}
				},
				{
					"sampler":2,
					"target":{
						"node":16,
						"path":"scale"
					}
				}
			],
			"name":"n14b18Action",
			"samplers":[
				{
					"input":124,
					"interpolation":"LINEAR",
					"output":125
				},
				{
					"input":124,
					"interpolation":"LINEAR",
					"output":126
				},
				{
					"input":124,
					"interpolation":"LINEAR",
					"output":127
				}
			]
		},
		{
			"channels":[
				{
					"sampler":0,
					"target":{
						"node":15,
						"path":"translation"
					}
				},
				{
					"sampler":1,
					"target":{
						"node":15,
						"path":"rotation"
					}
				},
				{
					"sampler":2,
					"target":{
						"node":15,
						"path":"scale"
					}
				}
			],
			"name":"n15b20Action",
			"samplers":[
				{
					"input":124,
					"interpolation":"LINEAR",
					"output":125
				},
				{
					"input":124,
					"interpolation":"LINEAR",
					"output":126
				},
				{
					"input":124,
					"interpolation":"LINEAR",
					"output":127
				}
			]
		},
		{
			"channels":[
				{
					"sampler":0,
					"target":{
						"node":14,
						"path":"translation"
					}
				},
				{
					"sampler":1,
					"target":{
						"node":14,
						"path":"rotation"
					}
				},
				{
					"sampler":2,
					"target":{
						"node":14,
						"path":"scale"
					}
				}
			],
			"name":"n16b19Action",
			"samplers":[
				{
					"input":124,
					"interpolation":"LINEAR",
					"output":125
				},
				{
					"input":124,
					"interpolation":"LINEAR",
					"output":126
				},
				{
					"input":124,
					"interpolation":"LINEAR",
					"output":127
				}
			]
		},
		{
			"channels":[
				{
					"sampler":0,
					"target":{
						"node":13,
						"path":"translation"
					}
				},
				{
					"sampler":1,
					"target":{
						"node":13,
						"path":"rotation"
					}
				},
				{
					"sampler":2,
					"target":{
						"node":13,
						"path":"scale"
					}
				}
			],
			"name":"n17b24Action",
			"samplers":[
				{
					"input":124,
					"interpolation":"LINEAR",
					"output":125
				},
				{
					"input":124,
					"interpolation":"LINEAR",
					"output":126
				},
				{
					"input":124,
					"interpolation":"LINEAR",
					"output":127
				}
			]
		},
		{
			"channels":[
				{
					"sampler":0,
					"target":{
						"node":12,
						"path":"translation"
					}
				},
				{
					"sampler":1,
					"target":{
						"node":12,
						"path":"rotation"
					}
				},
				{
					"sampler":2,
					"target":{
						"node":12,
						"path":"scale"
					}
				}
			],
			"name":"n18b28Action",
			"samplers":[
				{
					"input":124,
					"interpolation":"LINEAR",
					"output":125
				},
				{
					"input":124,
					"interpolation":"LINEAR",
					"output":126
				},
				{
					"input":124,
					"interpolation":"LINEAR",
					"output":127
				}
			]
		},
		{
			"channels":[
				{
					"sampler":0,
					"target":{
						"node":11,
						"path":"translation"
					}
				},
				{
					"sampler":1,
					"target":{
						"node":11,
						"path":"rotation"
					}
				},
				{
					"sampler":2,
					"target":{
						"node":11,
						"path":"scale"
					}
				}
			],
			"name":"n19b30Action",
			"samplers":[
				{
					"input":124,
					"interpolation":"LINEAR",
					"output":125
				},
				{
					"input":124,
					"interpolation":"LINEAR",
					"output":126
				},
				{
					"input":124,
					"interpolation":"LINEAR",
					"output":127
				}
			]
		},
		{
			"channels":[
				{
					"sampler":0,
					"target":{
						"node":10,
						"path":"translation"
					}
				},
				{
					"sampler":1,
					"target":{
						"node":10,
						"path":"rotation"
					}
				},
				{
					"sampler":2,
					"target":{
						"node":10,
						"path":"scale"
					}
				}
			],
			"name":"n20b11Action",
			"samplers":[
				{
					"input":124,
					"interpolation":"LINEAR",
					"output":125
				},
				{
					"input":124,
					"interpolation":"LINEAR",
					"output":126
				},
				{
					"input":124,
					"interpolation":"LINEAR",
					"output":127
				}
			]
		},
		{
			"channels":[
				{
					"sampler":0,
					"target":{
						"node":9,
						"path":"translation"
					}
				},
				{
					"sampler":1,
					"target":{
						"node":9,
						"path":"rotation"
					}
				},
				{
					"sampler":2,
					"target":{
						"node":9,
						"path":"scale"
					}
				}
			],
			"name":"n21b26Action",
			"samplers":[
				{
					"input":124,
					"interpolation":"LINEAR",
					"output":125
				},
				{
					"input":124,
					"interpolation":"LINEAR",
					"output":126
				},
				{
					"input":124,
					"interpolation":"LINEAR",
					"output":127
				}
			]
		},
		{
			"channels":[
				{
					"sampler":0,
					"target":{
						"node":8,
						"path":"translation"
					}
				},
				{
					"sampler":1,
					"target":{
						"node":8,
						"path":"rotation"
					}
				},
				{
					"sampler":2,
					"target":{
						"node":8,
						"path":"scale"
					}
				}
			],
			"name":"n22b25Action",
			"samplers":[
				{
					"input":124,
					"interpolation":"LINEAR",
					"output":125
				},
				{
					"input":124,
					"interpolation":"LINEAR",
					"output":126
				},
				{
					"input":124,
					"interpolation":"LINEAR",
					"output":127
				}
			]
		},
		{
			"channels":[
				{
					"sampler":0,
					"target":{
						"node":7,
						"path":"translation"
					}
				},
				{
					"sampler":1,
					"target":{
						"node":7,
						"path":"rotation"
					}
				},
				{
					"sampler":2,
					"target":{
						"node":7,
						"path":"scale"
					}
				}
			],
			"name":"n23b29Action",
			"samplers":[
				{
					"input":124,
					"interpolation":"LINEAR",
					"output":125
				},
				{
					"input":124,
					"interpolation":"LINEAR",
					"output":126
				},
				{
					"input":124,
					"interpolation":"LINEAR",
					"output":127
				}
			]
		},
		{
			"channels":[
				{
					"sampler":0,
					"target":{
						"node":6,
						"path":"translation"
					}
				},
				{
					"sampler":1,
					"target":{
						"node":6,
						"path":"rotation"
					}
				},
				{
					"sampler":2,
					"target":{
						"node":6,
						"path":"scale"
					}
				}
			],
			"name":"n24b16Action",
			"samplers":[
				{
					"input":124,
					"interpolation":"LINEAR",
					"output":125
				},
				{
					"input":124,
					"interpolation":"LINEAR",
					"output":126
				},
				{
					"input":124,
					"interpolation":"LINEAR",
					"output":127
				}
			]
		},
		{
			"channels":[
				{
					"sampler":0,
					"target":{
						"node":5,
						"path":"translation"
					}
				},
				{
					"sampler":1,
					"target":{
						"node":5,
						"path":"rotation"
					}
				},
				{
					"sampler":2,
					"target":{
						"node":5,
						"path":"scale"
					}
				}
			],
			"name":"n25b17Action",
			"samplers":[
				{
					"input":124,
					"interpolation":"LINEAR",
					"output":125
				},
				{
					"input":124,
					"interpolation":"LINEAR",
					"output":126
				},
				{
					"input":124,
					"interpolation":"LINEAR",
					"output":127
				}
			]
		},
		{
			"channels":[
				{
					"sampler":0,
					"target":{
						"node":4,
						"path":"translation"
					}
				},
				{
					"sampler":1,
					"target":{
						"node":4,
						"path":"rotation"
					}
				},
				{
					"sampler":2,
					"target":{
						"node":4,
						"path":"scale"
					}
				}
			],
			"name":"n26b27Action",
			"samplers":[
				{
					"input":124,
					"interpolation":"LINEAR",
					"output":125
				},
				{
					"input":124,
					"interpolation":"LINEAR",
					"output":126
				},
				{
					"input":124,
					"interpolation":"LINEAR",
					"output":127
				}
			]
		},
		{
			"channels":[
				{
					"sampler":0,
					"target":{
						"node":3,
						"path":"translation"
					}
				},
				{
					"sampler":1,
					"target":{
						"node":3,
						"path":"rotation"
					}
				},
				{
					"sampler":2,
					"target":{
						"node":3,
						"path":"scale"
					}
				}
			],
			"name":"n27b9Action",
			"samplers":[
				{
					"input":124,
					"interpolation":"LINEAR",
					"output":125
				},
				{
					"input":124,
					"interpolation":"LINEAR",
					"output":126
				},
				{
					"input":124,
					"interpolation":"LINEAR",
					"output":127
				}
			]
		},
		{
			"channels":[
				{
					"sampler":0,
					"target":{
						"node":2,
						"path":"translation"
					}
				},
				{
					"sampler":1,
					"target":{
						"node":2,
						"path":"rotation"
					}
				},
				{
					"sampler":2,
					"target":{
						"node":2,
						"path":"scale"
					}
				}
			],
			"name":"n28b0Action",
			"samplers":[
				{
					"input":124,
					"interpolation":"LINEAR",
					"output":125
				},
				{
					"input":124,
					"interpolation":"LINEAR",
					"output":126
				},
				{
					"input":124,
					"interpolation":"LINEAR",
					"output":127
				}
			]
		},
		{
			"channels":[
				{
					"sampler":0,
					"target":{
						"node":1,
						"path":"translation"
					}
				},
				{
					"sampler":1,
					"target":{
						"node":1,
						"path":"rotation"
					}
				},
				{
					"sampler":2,
					"target":{
						"node":1,
						"path":"scale"
					}
				}
			],
			"name":"n29b8Action",
			"samplers":[
				{
					"input":124,
					"interpolation":"LINEAR",
					"output":125
				},
				{
					"input":124,
					"interpolation":"LINEAR",
					"output":126
				},
				{
					"input":124,
					"interpolation":"LINEAR",
					"output":127
				}
			]
		},
		{
			"channels":[
				{
					"sampler":0,
					"target":{
						"node":0,
						"path":"translation"
					}
				},
				{
					"sampler":1,
					"target":{
						"node":0,
						"path":"rotation"
					}
				},
				{
					"sampler":2,
					"target":{
						"node":0,
						"path":"scale"
					}
				}
			],
			"name":"n30b10Action",
			"samplers":[
				{
					"input":124,
					"interpolation":"LINEAR",
					"output":125
				},
				{
					"input":124,
					"interpolation":"LINEAR",
					"output":126
				},
				{
					"input":124,
					"interpolation":"LINEAR",
					"output":127
				}
			]
		}
	],
	"materials":[
		{
			"alphaMode":"BLEND",
			"doubleSided":true,
			"extensions":{
				"KHR_materials_specular":{
					"specularFactor":0,
					"specularColorFactor":[
						0.8980392217636108,
						0.8980392217636108,
						0.8980392217636108
					]
				}
			},
			"name":"m30",
			"pbrMetallicRoughness":{
				"baseColorTexture":{
					"index":0
				},
				"metallicFactor":0,
				"roughnessFactor":0.8999999761581421
			}
		},
		{
			"alphaMode":"BLEND",
			"doubleSided":true,
			"extensions":{
				"KHR_materials_specular":{
					"specularFactor":0,
					"specularColorFactor":[
						0.8980392217636108,
						0.8980392217636108,
						0.8980392217636108
					]
				}
			},
			"name":"m29",
			"pbrMetallicRoughness":{
				"baseColorTexture":{
					"index":1
				},
				"metallicFactor":0,
				"roughnessFactor":0.8999999761581421
			}
		},
		{
			"alphaMode":"BLEND",
			"doubleSided":true,
			"extensions":{
				"KHR_materials_specular":{
					"specularFactor":0,
					"specularColorFactor":[
						0.8980392217636108,
						0.8980392217636108,
						0.8980392217636108
					]
				}
			},
			"name":"m28",
			"pbrMetallicRoughness":{
				"baseColorTexture":{
					"index":2
				},
				"metallicFactor":0,
				"roughnessFactor":0.8999999761581421
			}
		},
		{
			"alphaMode":"BLEND",
			"doubleSided":true,
			"extensions":{
				"KHR_materials_specular":{
					"specularFactor":0,
					"specularColorFactor":[
						0.8980392217636108,
						0.8980392217636108,
						0.8980392217636108
					]
				}
			},
			"name":"m27",
			"pbrMetallicRoughness":{
				"baseColorTexture":{
					"index":3
				},
				"metallicFactor":0,
				"roughnessFactor":0.8999999761581421
			}
		},
		{
			"alphaMode":"BLEND",
			"doubleSided":true,
			"extensions":{
				"KHR_materials_specular":{
					"specularFactor":0,
					"specularColorFactor":[
						0.8980392217636108,
						0.8980392217636108,
						0.8980392217636108
					]
				}
			},
			"name":"m26",
			"pbrMetallicRoughness":{
				"baseColorTexture":{
					"index":4
				},
				"metallicFactor":0,
				"roughnessFactor":0.8999999761581421
			}
		},
		{
			"alphaMode":"BLEND",
			"doubleSided":true,
			"extensions":{
				"KHR_materials_specular":{
					"specularFactor":0,
					"specularColorFactor":[
						0.8980392217636108,
						0.8980392217636108,
						0.8980392217636108
					]
				}
			},
			"name":"m25",
			"pbrMetallicRoughness":{
				"baseColorTexture":{
					"index":5
				},
				"metallicFactor":0,
				"roughnessFactor":0.8999999761581421
			}
		},
		{
			"alphaMode":"BLEND",
			"doubleSided":true,
			"extensions":{
				"KHR_materials_specular":{
					"specularFactor":0,
					"specularColorFactor":[
						0.8980392217636108,
						0.8980392217636108,
						0.8980392217636108
					]
				}
			},
			"name":"m24",
			"pbrMetallicRoughness":{
				"baseColorTexture":{
					"index":6
				},
				"metallicFactor":0,
				"roughnessFactor":0.8999999761581421
			}
		},
		{
			"alphaMode":"BLEND",
			"doubleSided":true,
			"extensions":{
				"KHR_materials_specular":{
					"specularFactor":0,
					"specularColorFactor":[
						0.8980392217636108,
						0.8980392217636108,
						0.8980392217636108
					]
				}
			},
			"name":"m23",
			"pbrMetallicRoughness":{
				"baseColorTexture":{
					"index":7
				},
				"metallicFactor":0,
				"roughnessFactor":0.8999999761581421
			}
		},
		{
			"alphaMode":"BLEND",
			"doubleSided":true,
			"extensions":{
				"KHR_materials_specular":{
					"specularFactor":0,
					"specularColorFactor":[
						0.8980392217636108,
						0.8980392217636108,
						0.8980392217636108
					]
				}
			},
			"name":"m22",
			"pbrMetallicRoughness":{
				"baseColorTexture":{
					"index":8
				},
				"metallicFactor":0,
				"roughnessFactor":0.8999999761581421
			}
		},
		{
			"alphaMode":"BLEND",
			"doubleSided":true,
			"extensions":{
				"KHR_materials_specular":{
					"specularFactor":0,
					"specularColorFactor":[
						0.8980392217636108,
						0.8980392217636108,
						0.8980392217636108
					]
				}
			},
			"name":"m21",
			"pbrMetallicRoughness":{
				"baseColorTexture":{
					"index":9
				},
				"metallicFactor":0,
				"roughnessFactor":0.8999999761581421
			}
		},
		{
			"alphaMode":"BLEND",
			"doubleSided":true,
			"extensions":{
				"KHR_materials_specular":{
					"specularFactor":0,
					"specularColorFactor":[
						0.8980392217636108,
						0.8980392217636108,
						0.8980392217636108
					]
				}
			},
			"name":"m20",
			"pbrMetallicRoughness":{
				"baseColorTexture":{
					"index":10
				},
				"metallicFactor":0,
				"roughnessFactor":0.8999999761581421
			}
		},
		{
			"alphaMode":"BLEND",
			"doubleSided":true,
			"extensions":{
				"KHR_materials_specular":{
					"specularFactor":0,
					"specularColorFactor":[
						0.8980392217636108,
						0.8980392217636108,
						0.8980392217636108
					]
				}
			},
			"name":"m19",
			"pbrMetallicRoughness":{
				"baseColorTexture":{
					"index":11
				},
				"metallicFactor":0,
				"roughnessFactor":0.8999999761581421
			}
		},
		{
			"alphaMode":"BLEND",
			"doubleSided":true,
			"extensions":{
				"KHR_materials_specular":{
					"specularFactor":0,
					"specularColorFactor":[
						0.8980392217636108,
						0.8980392217636108,
						0.8980392217636108
					]
				}
			},
			"name":"m18",
			"pbrMetallicRoughness":{
				"baseColorTexture":{
					"index":12
				},
				"metallicFactor":0,
				"roughnessFactor":0.8999999761581421
			}
		},
		{
			"alphaMode":"BLEND",
			"doubleSided":true,
			"extensions":{
				"KHR_materials_specular":{
					"specularFactor":0,
					"specularColorFactor":[
						0.8980392217636108,
						0.8980392217636108,
						0.8980392217636108
					]
				}
			},
			"name":"m17",
			"pbrMetallicRoughness":{
				"baseColorTexture":{
					"index":13
				},
				"metallicFactor":0,
				"roughnessFactor":0.8999999761581421
			}
		},
		{
			"alphaMode":"BLEND",
			"doubleSided":true,
			"extensions":{
				"KHR_materials_specular":{
					"specularFactor":0,
					"specularColorFactor":[
						0.8980392217636108,
						0.8980392217636108,
						0.8980392217636108
					]
				}
			},
			"name":"m16",
			"pbrMetallicRoughness":{
				"baseColorTexture":{
					"index":14
				},
				"metallicFactor":0,
				"roughnessFactor":0.8999999761581421
			}
		},
		{
			"alphaMode":"BLEND",
			"doubleSided":true,
			"extensions":{
				"KHR_materials_specular":{
					"specularFactor":0,
					"specularColorFactor":[
						0.8980392217636108,
						0.8980392217636108,
						0.8980392217636108
					]
				}
			},
			"name":"m15",
			"pbrMetallicRoughness":{
				"baseColorTexture":{
					"index":15
				},
				"metallicFactor":0,
				"roughnessFactor":0.8999999761581421
			}
		},
		{
			"alphaMode":"BLEND",
			"doubleSided":true,
			"extensions":{
				"KHR_materials_specular":{
					"specularFactor":0,
					"specularColorFactor":[
						0.8980392217636108,
						0.8980392217636108,
						0.8980392217636108
					]
				}
			},
			"name":"m14",
			"pbrMetallicRoughness":{
				"baseColorTexture":{
					"index":16
				},
				"metallicFactor":0,
				"roughnessFactor":0.8999999761581421
			}
		},
		{
			"alphaMode":"BLEND",
			"doubleSided":true,
			"extensions":{
				"KHR_materials_specular":{
					"specularFactor":0,
					"specularColorFactor":[
						0.8980392217636108,
						0.8980392217636108,
						0.8980392217636108
					]
				}
			},
			"name":"m13",
			"pbrMetallicRoughness":{
				"baseColorTexture":{
					"index":17
				},
				"metallicFactor":0,
				"roughnessFactor":0.8999999761581421
			}
		},
		{
			"alphaMode":"BLEND",
			"doubleSided":true,
			"extensions":{
				"KHR_materials_specular":{
					"specularFactor":0,
					"specularColorFactor":[
						0.8980392217636108,
						0.8980392217636108,
						0.8980392217636108
					]
				}
			},
			"name":"m12",
			"pbrMetallicRoughness":{
				"baseColorTexture":{
					"index":18
				},
				"metallicFactor":0,
				"roughnessFactor":0.8999999761581421
			}
		},
		{
			"alphaMode":"BLEND",
			"doubleSided":true,
			"extensions":{
				"KHR_materials_specular":{
					"specularFactor":0,
					"specularColorFactor":[
						0.8980392217636108,
						0.8980392217636108,
						0.8980392217636108
					]
				}
			},
			"name":"m11",
			"pbrMetallicRoughness":{
				"baseColorTexture":{
					"index":19
				},
				"metallicFactor":0,
				"roughnessFactor":0.8999999761581421
			}
		},
		{
			"alphaMode":"BLEND",
			"doubleSided":true,
			"extensions":{
				"KHR_materials_specular":{
					"specularFactor":0,
					"specularColorFactor":[
						0.8980392217636108,
						0.8980392217636108,
						0.8980392217636108
					]
				}
			},
			"name":"m10",
			"pbrMetallicRoughness":{
				"baseColorTexture":{
					"index":20
				},
				"metallicFactor":0,
				"roughnessFactor":0.8999999761581421
			}
		},
		{
			"alphaMode":"BLEND",
			"doubleSided":true,
			"extensions":{
				"KHR_materials_specular":{
					"specularFactor":0,
					"specularColorFactor":[
						0.8980392217636108,
						0.8980392217636108,
						0.8980392217636108
					]
				}
			},
			"name":"m9",
			"pbrMetallicRoughness":{
				"baseColorTexture":{
					"index":21
				},
				"metallicFactor":0,
				"roughnessFactor":0.8999999761581421
			}
		},
		{
			"alphaMode":"BLEND",
			"doubleSided":true,
			"extensions":{
				"KHR_materials_specular":{
					"specularFactor":0,
					"specularColorFactor":[
						0.8980392217636108,
						0.8980392217636108,
						0.8980392217636108
					]
				}
			},
			"name":"m8",
			"pbrMetallicRoughness":{
				"baseColorTexture":{
					"index":22
				},
				"metallicFactor":0,
				"roughnessFactor":0.8999999761581421
			}
		},
		{
			"alphaMode":"BLEND",
			"doubleSided":true,
			"extensions":{
				"KHR_materials_specular":{
					"specularFactor":0,
					"specularColorFactor":[
						0.8980392217636108,
						0.8980392217636108,
						0.8980392217636108
					]
				}
			},
			"name":"m7",
			"pbrMetallicRoughness":{
				"baseColorTexture":{
					"index":23
				},
				"metallicFactor":0,
				"roughnessFactor":0.8999999761581421
			}
		},
		{
			"alphaMode":"BLEND",
			"doubleSided":true,
			"extensions":{
				"KHR_materials_specular":{
					"specularFactor":0,
					"specularColorFactor":[
						0.8980392217636108,
						0.8980392217636108,
						0.8980392217636108
					]
				}
			},
			"name":"m6",
			"pbrMetallicRoughness":{
				"baseColorTexture":{
					"index":24
				},
				"metallicFactor":0,
				"roughnessFactor":0.8999999761581421
			}
		},
		{
			"alphaMode":"BLEND",
			"doubleSided":true,
			"extensions":{
				"KHR_materials_specular":{
					"specularFactor":0,
					"specularColorFactor":[
						0.8980392217636108,
						0.8980392217636108,
						0.8980392217636108
					]
				}
			},
			"name":"m5",
			"pbrMetallicRoughness":{
				"baseColorTexture":{
					"index":25
				},
				"metallicFactor":0,
				"roughnessFactor":0.8999999761581421
			}
		},
		{
			"alphaMode":"BLEND",
			"doubleSided":true,
			"extensions":{
				"KHR_materials_specular":{
					"specularFactor":0,
					"specularColorFactor":[
						0.8980392217636108,
						0.8980392217636108,
						0.8980392217636108
					]
				}
			},
			"name":"m4",
			"pbrMetallicRoughness":{
				"baseColorTexture":{
					"index":26
				},
				"metallicFactor":0,
				"roughnessFactor":0.8999999761581421
			}
		},
		{
			"alphaMode":"BLEND",
			"doubleSided":true,
			"extensions":{
				"KHR_materials_specular":{
					"specularFactor":0,
					"specularColorFactor":[
						0.8980392217636108,
						0.8980392217636108,
						0.8980392217636108
					]
				}
			},
			"name":"m3",
			"pbrMetallicRoughness":{
				"baseColorTexture":{
					"index":27
				},
				"metallicFactor":0,
				"roughnessFactor":0.8999999761581421
			}
		},
		{
			"alphaMode":"BLEND",
			"doubleSided":true,
			"extensions":{
				"KHR_materials_specular":{
					"specularFactor":0,
					"specularColorFactor":[
						0.8980392217636108,
						0.8980392217636108,
						0.8980392217636108
					]
				}
			},
			"name":"m2",
			"pbrMetallicRoughness":{
				"baseColorTexture":{
					"index":28
				},
				"metallicFactor":0,
				"roughnessFactor":0.8999999761581421
			}
		},
		{
			"alphaMode":"BLEND",
			"doubleSided":true,
			"extensions":{
				"KHR_materials_specular":{
					"specularFactor":0,
					"specularColorFactor":[
						0.8980392217636108,
						0.8980392217636108,
						0.8980392217636108
					]
				}
			},
			"name":"m1",
			"pbrMetallicRoughness":{
				"baseColorTexture":{
					"index":29
				},
				"metallicFactor":0,
				"roughnessFactor":0.8999999761581421
			}
		},
		{
			"alphaMode":"BLEND",
			"doubleSided":true,
			"extensions":{
				"KHR_materials_specular":{
					"specularFactor":0,
					"specularColorFactor":[
						0.8980392217636108,
						0.8980392217636108,
						0.8980392217636108
					]
				}
			},
			"name":"m0",
			"pbrMetallicRoughness":{
				"baseColorTexture":{
					"index":30
				},
				"metallicFactor":0,
				"roughnessFactor":0.8999999761581421
			}
		}
	],
	"meshes":[
		{
			"name":"n30b10",
			"primitives":[
				{
					"attributes":{
						"POSITION":0,
						"NORMAL":1,
						"TEXCOORD_0":2
					},
					"indices":3,
					"material":0
				}
			]
		},
		{
			"name":"n29b8",
			"primitives":[
				{
					"attributes":{
						"POSITION":4,
						"NORMAL":5,
						"TEXCOORD_0":6
					},
					"indices":7,
					"material":1
				}
			]
		},
		{
			"name":"n28b0",
			"primitives":[
				{
					"attributes":{
						"POSITION":8,
						"NORMAL":9,
						"TEXCOORD_0":10
					},
					"indices":11,
					"material":2
				}
			]
		},
		{
			"name":"n27b9",
			"primitives":[
				{
					"attributes":{
						"POSITION":12,
						"NORMAL":13,
						"TEXCOORD_0":14
					},
					"indices":15,
					"material":3
				}
			]
		},
		{
			"name":"n26b27",
			"primitives":[
				{
					"attributes":{
						"POSITION":16,
						"NORMAL":17,
						"TEXCOORD_0":18
					},
					"indices":19,
					"material":4
				}
			]
		},
		{
			"name":"n25b17",
			"primitives":[
				{
					"attributes":{
						"POSITION":20,
						"NORMAL":21,
						"TEXCOORD_0":22
					},
					"indices":23,
					"material":5
				}
			]
		},
		{
			"name":"n24b16",
			"primitives":[
				{
					"attributes":{
						"POSITION":24,
						"NORMAL":25,
						"TEXCOORD_0":26
					},
					"indices":27,
					"material":6
				}
			]
		},
		{
			"name":"n23b29",
			"primitives":[
				{
					"attributes":{
						"POSITION":28,
						"NORMAL":29,
						"TEXCOORD_0":30
					},
					"indices":31,
					"material":7
				}
			]
		},
		{
			"name":"n22b25",
			"primitives":[
				{
					"attributes":{
						"POSITION":32,
						"NORMAL":33,
						"TEXCOORD_0":34
					},
					"indices":35,
					"material":8
				}
			]
		},
		{
			"name":"n21b26",
			"primitives":[
				{
					"attributes":{
						"POSITION":36,
						"NORMAL":37,
						"TEXCOORD_0":38
					},
					"indices":39,
					"material":9
				}
			]
		},
		{
			"name":"n20b11",
			"primitives":[
				{
					"attributes":{
						"POSITION":40,
						"NORMAL":41,
						"TEXCOORD_0":42
					},
					"indices":43,
					"material":10
				}
			]
		},
		{
			"name":"n19b30",
			"primitives":[
				{
					"attributes":{
						"POSITION":44,
						"NORMAL":45,
						"TEXCOORD_0":46
					},
					"indices":47,
					"material":11
				}
			]
		},
		{
			"name":"n18b28",
			"primitives":[
				{
					"attributes":{
						"POSITION":48,
						"NORMAL":49,
						"TEXCOORD_0":50
					},
					"indices":51,
					"material":12
				}
			]
		},
		{
			"name":"n17b24",
			"primitives":[
				{
					"attributes":{
						"POSITION":52,
						"NORMAL":53,
						"TEXCOORD_0":54
					},
					"indices":55,
					"material":13
				}
			]
		},
		{
			"name":"n16b19",
			"primitives":[
				{
					"attributes":{
						"POSITION":56,
						"NORMAL":57,
						"TEXCOORD_0":58
					},
					"indices":59,
					"material":14
				}
			]
		},
		{
			"name":"n15b20",
			"primitives":[
				{
					"attributes":{
						"POSITION":60,
						"NORMAL":61,
						"TEXCOORD_0":62
					},
					"indices":63,
					"material":15
				}
			]
		},
		{
			"name":"n14b18",
			"primitives":[
				{
					"attributes":{
						"POSITION":64,
						"NORMAL":65,
						"TEXCOORD_0":66
					},
					"indices":67,
					"material":16
				}
			]
		},
		{
			"name":"n13b23",
			"primitives":[
				{
					"attributes":{
						"POSITION":68,
						"NORMAL":69,
						"TEXCOORD_0":70
					},
					"indices":71,
					"material":17
				}
			]
		},
		{
			"name":"n12b2",
			"primitives":[
				{
					"attributes":{
						"POSITION":72,
						"NORMAL":73,
						"TEXCOORD_0":74
					},
					"indices":75,
					"material":18
				}
			]
		},
		{
			"name":"n11b1",
			"primitives":[
				{
					"attributes":{
						"POSITION":76,
						"NORMAL":77,
						"TEXCOORD_0":78
					},
					"indices":79,
					"material":19
				}
			]
		},
		{
			"name":"n10b6",
			"primitives":[
				{
					"attributes":{
						"POSITION":80,
						"NORMAL":81,
						"TEXCOORD_0":82
					},
					"indices":83,
					"material":20
				}
			]
		},
		{
			"name":"n9b7",
			"primitives":[
				{
					"attributes":{
						"POSITION":84,
						"NORMAL":85,
						"TEXCOORD_0":86
					},
					"indices":87,
					"material":21
				}
			]
		},
		{
			"name":"n8b4",
			"primitives":[
				{
					"attributes":{
						"POSITION":88,
						"NORMAL":89,
						"TEXCOORD_0":90
					},
					"indices":91,
					"material":22
				}
			]
		},
		{
			"name":"n7b5",
			"primitives":[
				{
					"attributes":{
						"POSITION":92,
						"NORMAL":93,
						"TEXCOORD_0":94
					},
					"indices":95,
					"material":23
				}
			]
		},
		{
			"name":"n6b3",
			"primitives":[
				{
					"attributes":{
						"POSITION":96,
						"NORMAL":97,
						"TEXCOORD_0":98
					},
					"indices":99,
					"material":24
				}
			]
		},
		{
			"name":"n5b12",
			"primitives":[
				{
					"attributes":{
						"POSITION":100,
						"NORMAL":101,
						"TEXCOORD_0":102
					},
					"indices":103,
					"material":25
				}
			]
		},
		{
			"name":"n4b22",
			"primitives":[
				{
					"attributes":{
						"POSITION":104,
						"NORMAL":105,
						"TEXCOORD_0":106
					},
					"indices":107,
					"material":26
				}
			]
		},
		{
			"name":"n3b14",
			"primitives":[
				{
					"attributes":{
						"POSITION":108,
						"NORMAL":109,
						"TEXCOORD_0":110
					},
					"indices":111,
					"material":27
				}
			]
		},
		{
			"name":"n2b13",
			"primitives":[
				{
					"attributes":{
						"POSITION":112,
						"NORMAL":113,
						"TEXCOORD_0":114
					},
					"indices":115,
					"material":28
				}
			]
		},
		{
			"name":"n1b15",
			"primitives":[
				{
					"attributes":{
						"POSITION":116,
						"NORMAL":117,
						"TEXCOORD_0":118
					},
					"indices":119,
					"material":29
				}
			]
		},
		{
			"name":"n0b21",
			"primitives":[
				{
					"attributes":{
						"POSITION":120,
						"NORMAL":121,
						"TEXCOORD_0":122
					},
					"indices":123,
					"material":30
				}
			]
		}
	],
	"textures":[
		{
			"sampler":0,
			"source":0
		},
		{
			"sampler":0,
			"source":1
		},
		{
			"sampler":0,
			"source":0
		},
		{
			"sampler":0,
			"source":2
		},
		{
			"sampler":0,
			"source":3
		},
		{
			"sampler":0,
			"source":1
		},
		{
			"sampler":0,
			"source":1
		},
		{
			"sampler":0,
			"source":4
		},
		{
			"sampler":0,
			"source":5
		},
		{
			"sampler":0,
			"source":6
		},
		{
			"sampler":0,
			"source":7
		},
		{
			"sampler":0,
			"source":8
		},
		{
			"sampler":0,
			"source":9
		},
		{
			"sampler":0,
			"source":10
		},
		{
			"sampler":0,
			"source":11
		},
		{
			"sampler":0,
			"source":12
		},
		{
			"sampler":0,
			"source":13
		},
		{
			"sampler":0,
			"source":14
		},
		{
			"sampler":0,
			"source":15
		},
		{
			"sampler":0,
			"source":16
		},
		{
			"sampler":0,
			"source":17
		},
		{
			"sampler":0,
			"source":2
		},
		{
			"sampler":0,
			"source":18
		},
		{
			"sampler":0,
			"source":19
		},
		{
			"sampler":0,
			"source":20
		},
		{
			"sampler":0,
			"source":1
		},
		{
			"sampler":0,
			"source":21
		},
		{
			"sampler":0,
			"source":0
		},
		{
			"sampler":0,
			"source":4
		},
		{
			"sampler":0,
			"source":6
		},
		{
			"sampler":0,
			"source":22
		}
	],
	"images":[
		{
			"mimeType":"image/png",
			"name":"stagSS00",
			"uri":"stagSS00.png"
		},
		{
			"mimeType":"image/png",
			"name":"stagSS02",
			"uri":"stagSS02.png"
		},
		{
			"mimeType":"image/png",
			"name":"stagMM03",
			"uri":"stagMM03.png"
		},
		{
			"mimeType":"image/png",
			"name":"stagSM04",
			"uri":"stagSM04.png"
		},
		{
			"mimeType":"image/png",
			"name":"stagSS06",
			"uri":"stagSS06.png"
		},
		{
			"mimeType":"image/png",
			"name":"stagSS07",
			"uri":"stagSS07.png"
		},
		{
			"mimeType":"image/png",
			"name":"stagSS08",
			"uri":"stagSS08.png"
		},
		{
			"mimeType":"image/png",
			"name":"stagSS09-stagSS09.tga",
			"uri":"stagSS09-stagSS09.tga.png"
		},
		{
			"mimeType":"image/png",
			"name":"stagSS11",
			"uri":"stagSS11.png"
		},
		{
			"mimeType":"image/png",
			"name":"stagMM12",
			"uri":"stagMM12.png"
		},
		{
			"mimeType":"image/png",
			"name":"stagMM13",
			"uri":"stagMM13.png"
		},
		{
			"mimeType":"image/png",
			"name":"stagSS14",
			"uri":"stagSS14.png"
		},
		{
			"mimeType":"image/png",
			"name":"stagMS15",
			"uri":"stagMS15.png"
		},
		{
			"mimeType":"image/png",
			"name":"stagSS16",
			"uri":"stagSS16.png"
		},
		{
			"mimeType":"image/png",
			"name":"stagSM17",
			"uri":"stagSM17.png"
		},
		{
			"mimeType":"image/png",
			"name":"stagSS18",
			"uri":"stagSS18.png"
		},
		{
			"mimeType":"image/png",
			"name":"stagSS19",
			"uri":"stagSS19.png"
		},
		{
			"mimeType":"image/png",
			"name":"stagMM20",
			"uri":"stagMM20.png"
		},
		{
			"mimeType":"image/png",
			"name":"stagSS21",
			"uri":"stagSS21.png"
		},
		{
			"mimeType":"image/png",
			"name":"stagSS22",
			"uri":"stagSS22.png"
		},
		{
			"mimeType":"image/png",
			"name":"stagSS23",
			"uri":"stagSS23.png"
		},
		{
			"mimeType":"image/png",
			"name":"stagSS25",
			"uri":"stagSS25.png"
		},
		{
			"mimeType":"image/png",
			"name":"stagSS28",
			"uri":"stagSS28.png"
		}
	],
	"accessors":[
		{
			"bufferView":0,
			"componentType":5126,
			"count":18,
			"max":[
				31406.865234375,
				-338.0000305175781,
				4095.5517578125
			],
			"min":[
				29608.69140625,
				-338.0000305175781,
				2295.25537109375
			],
			"type":"VEC3"
		},
		{
			"bufferView":1,
			"componentType":5126,
			"count":18,
			"type":"VEC3"
		},
		{
			"bufferView":2,
			"componentType":5126,
			"count":18,
			"type":"VEC2"
		},
		{
			"bufferView":3,
			"componentType":5123,
			"count":54,
			"type":"SCALAR"
		},
		{
			"bufferView":4,
			"componentType":5126,
			"count":1211,
			"max":[
				43006.09765625,
				4395.8955078125,
				32950.32421875
			],
			"min":[
				-697.0803833007812,
				-12000,
				-39445.00390625
			],
			"type":"VEC3"
		},
		{
			"bufferView":5,
			"componentType":5126,
			"count":1211,
			"type":"VEC3"
		},
		{
			"bufferView":6,
			"componentType":5126,
			"count":1211,
			"type":"VEC2"
		},
		{
			"bufferView":7,
			"componentType":5123,
			"count":4584,
			"type":"SCALAR"
		},
		{
			"bufferView":8,
			"componentType":5126,
			"count":1448,
			"max":[
				46013.06640625,
				898.357666015625,
				25486.125
			],
			"min":[
				-21528.103515625,
				-2264.0068359375,
				-20931.697265625
			],
			"type":"VEC3"
		},
		{
			"bufferView":9,
			"componentType":5126,
			"count":1448,
			"type":"VEC3"
		},
		{
			"bufferView":10,
			"componentType":5126,
			"count":1448,
			"type":"VEC2"
		},
		{
			"bufferView":11,
			"componentType":5123,
			"count":3753,
			"type":"SCALAR"
		},
		{
			"bufferView":12,
			"componentType":5126,
			"count":300,
			"max":[
				38655.66015625,
				652.0000610351562,
				16646.375
			],
			"min":[
				20830.251953125,
				-341.0232849121094,
				-42693.53125
			],
			"type":"VEC3"
		},
		{
			"bufferView":13,
			"componentType":5126,
			"count":300,
			"type":"VEC3"
		},
		{
			"bufferView":14,
			"componentType":5126,
			"count":300,
			"type":"VEC2"
		},
		{
			"bufferView":15,
			"componentType":5123,
			"count":1341,
			"type":"SCALAR"
		},
		{
			"bufferView":16,
			"componentType":5126,
			"count":54,
			"max":[
				25176.697265625,
				4918.43359375,
				49433.9453125
			],
			"min":[
				11878.306640625,
				1966.4000244140625,
				24551.767578125
			],
			"type":"VEC3"
		},
		{
			"bufferView":17,
			"componentType":5126,
			"count":54,
			"type":"VEC3"
		},
		{
			"bufferView":18,
			"componentType":5126,
			"count":54,
			"type":"VEC2"
		},
		{
			"bufferView":19,
			"componentType":5123,
			"count":207,
			"type":"SCALAR"
		},
		{
			"bufferView":20,
			"componentType":5126,
			"count":21,
			"max":[
				-27402.970703125,
				73.40560913085938,
				11070.298828125
			],
			"min":[
				-27667.384765625,
				-198.5,
				8601.8583984375
			],
			"type":"VEC3"
		},
		{
			"bufferView":21,
			"componentType":5126,
			"count":21,
			"type":"VEC3"
		},
		{
			"bufferView":22,
			"componentType":5126,
			"count":21,
			"type":"VEC2"
		},
		{
			"bufferView":23,
			"componentType":5123,
			"count":69,
			"type":"SCALAR"
		},
		{
			"bufferView":24,
			"componentType":5126,
			"count":119,
			"max":[
				60249.40625,
				5832.7705078125,
				41249.76171875
			],
			"min":[
				-28446.7421875,
				-12001.6044921875,
				-47233.546875
			],
			"type":"VEC3"
		},
		{
			"bufferView":25,
			"componentType":5126,
			"count":119,
			"type":"VEC3"
		},
		{
			"bufferView":26,
			"componentType":5126,
			"count":119,
			"type":"VEC2"
		},
		{
			"bufferView":27,
			"componentType":5123,
			"count":420,
			"type":"SCALAR"
		},
		{
			"bufferView":28,
			"componentType":5126,
			"count":30,
			"max":[
				-27215.3671875,
				2771.38916015625,
				11600.98046875
			],
			"min":[
				-28264.5859375,
				-227.9384765625,
				8360.2255859375
			],
			"type":"VEC3"
		},
		{
			"bufferView":29,
			"componentType":5126,
			"count":30,
			"type":"VEC3"
		},
		{
			"bufferView":30,
			"componentType":5126,
			"count":30,
			"type":"VEC2"
		},
		{
			"bufferView":31,
			"componentType":5123,
			"count":108,
			"type":"SCALAR"
		},
		{
			"bufferView":32,
			"componentType":5126,
			"count":48,
			"max":[
				41595.703125,
				1135.01220703125,
				-37381.09375
			],
			"min":[
				36146.75,
				-1953.160400390625,
				-45559.796875
			],
			"type":"VEC3"
		},
		{
			"bufferView":33,
			"componentType":5126,
			"count":48,
			"type":"VEC3"
		},
		{
			"bufferView":34,
			"componentType":5126,
			"count":48,
			"type":"VEC2"
		},
		{
			"bufferView":35,
			"componentType":5123,
			"count":144,
			"type":"SCALAR"
		},
		{
			"bufferView":36,
			"componentType":5126,
			"count":7,
			"max":[
				4987.39013671875,
				1496.3748779296875,
				25896.99609375
			],
			"min":[
				1439.3262939453125,
				-12000,
				24455.82421875
			],
			"type":"VEC3"
		},
		{
			"bufferView":37,
			"componentType":5126,
			"count":7,
			"type":"VEC3"
		},
		{
			"bufferView":38,
			"componentType":5126,
			"count":7,
			"type":"VEC2"
		},
		{
			"bufferView":39,
			"componentType":5123,
			"count":18,
			"type":"SCALAR"
		},
		{
			"bufferView":40,
			"componentType":5126,
			"count":212,
			"max":[
				41299.74609375,
				40,
				17236.337890625
			],
			"min":[
				-247.35812377929688,
				-300,
				-10304.2236328125
			],
			"type":"VEC3"
		},
		{
			"bufferView":41,
			"componentType":5126,
			"count":212,
			"type":"VEC3"
		},
		{
			"bufferView":42,
			"componentType":5126,
			"count":212,
			"type":"VEC2"
		},
		{
			"bufferView":43,
			"componentType":5123,
			"count":927,
			"type":"SCALAR"
		},
		{
			"bufferView":44,
			"componentType":5126,
			"count":44,
			"max":[
				15750,
				5201,
				28443.22265625
			],
			"min":[
				12558.001953125,
				3750,
				26958.50390625
			],
			"type":"VEC3"
		},
		{
			"bufferView":45,
			"componentType":5126,
			"count":44,
			"type":"VEC3"
		},
		{
			"bufferView":46,
			"componentType":5126,
			"count":44,
			"type":"VEC2"
		},
		{
			"bufferView":47,
			"componentType":5123,
			"count":72,
			"type":"SCALAR"
		},
		{
			"bufferView":48,
			"componentType":5126,
			"count":1020,
			"max":[
				65160.79296875,
				6619.103515625,
				47141.62109375
			],
			"min":[
				-38694.98046875,
				-1936.085693359375,
				-35490.45703125
			],
			"type":"VEC3"
		},
		{
			"bufferView":49,
			"componentType":5126,
			"count":1020,
			"type":"VEC3"
		},
		{
			"bufferView":50,
			"componentType":5126,
			"count":1020,
			"type":"VEC2"
		},
		{
			"bufferView":51,
			"componentType":5123,
			"count":1122,
			"type":"SCALAR"
		},
		{
			"bufferView":52,
			"componentType":5126,
			"count":576,
			"max":[
				41560.7265625,
				1067.9248046875,
				-37361.9140625
			],
			"min":[
				36184.51953125,
				-1901.6400146484375,
				-45510.34375
			],
			"type":"VEC3"
		},
		{
			"bufferView":53,
			"componentType":5126,
			"count":576,
			"type":"VEC3"
		},
		{
			"bufferView":54,
			"componentType":5126,
			"count":576,
			"type":"VEC2"
		},
		{
			"bufferView":55,
			"componentType":5123,
			"count":1368,
			"type":"SCALAR"
		},
		{
			"bufferView":56,
			"componentType":5126,
			"count":54,
			"max":[
				173884.140625,
				37030.14453125,
				182360.296875
			],
			"min":[
				-308590.34375,
				-24797.880859375,
				-160020.109375
			],
			"type":"VEC3"
		},
		{
			"bufferView":57,
			"componentType":5126,
			"count":54,
			"type":"VEC3"
		},
		{
			"bufferView":58,
			"componentType":5126,
			"count":54,
			"type":"VEC2"
		},
		{
			"bufferView":59,
			"componentType":5123,
			"count":144,
			"type":"SCALAR"
		},
		{
			"bufferView":60,
			"componentType":5126,
			"count":93,
			"max":[
				128797.2265625,
				44233.5546875,
				13984.8291015625
			],
			"min":[
				99102.671875,
				10534.470703125,
				-16117.1142578125
			],
			"type":"VEC3"
		},
		{
			"bufferView":61,
			"componentType":5126,
			"count":93,
			"type":"VEC3"
		},
		{
			"bufferView":62,
			"componentType":5126,
			"count":93,
			"type":"VEC2"
		},
		{
			"bufferView":63,
			"componentType":5123,
			"count":219,
			"type":"SCALAR"
		},
		{
			"bufferView":64,
			"componentType":5126,
			"count":24,
			"max":[
				163807.8125,
				40729.99609375,
				39437.82421875
			],
			"min":[
				98076.1640625,
				-11965.13671875,
				-58020.09765625
			],
			"type":"VEC3"
		},
		{
			"bufferView":65,
			"componentType":5126,
			"count":24,
			"type":"VEC3"
		},
		{
			"bufferView":66,
			"componentType":5126,
			"count":24,
			"type":"VEC2"
		},
		{
			"bufferView":67,
			"componentType":5123,
			"count":36,
			"type":"SCALAR"
		},
		{
			"bufferView":68,
			"componentType":5126,
			"count":96,
			"max":[
				-61587.42578125,
				21922.158203125,
				-62816.79296875
			],
			"min":[
				-109967.796875,
				-182.51480102539062,
				-129771.40625
			],
			"type":"VEC3"
		},
		{
			"bufferView":69,
			"componentType":5126,
			"count":96,
			"type":"VEC3"
		},
		{
			"bufferView":70,
			"componentType":5126,
			"count":96,
			"type":"VEC2"
		},
		{
			"bufferView":71,
			"componentType":5123,
			"count":336,
			"type":"SCALAR"
		},
		{
			"bufferView":72,
			"componentType":5126,
			"count":871,
			"max":[
				38046.9921875,
				287,
				25111.947265625
			],
			"min":[
				-12171.7138671875,
				-1130.852783203125,
				990.020263671875
			],
			"type":"VEC3"
		},
		{
			"bufferView":73,
			"componentType":5126,
			"count":871,
			"type":"VEC3"
		},
		{
			"bufferView":74,
			"componentType":5126,
			"count":871,
			"type":"VEC2"
		},
		{
			"bufferView":75,
			"componentType":5123,
			"count":1752,
			"type":"SCALAR"
		},
		{
			"bufferView":76,
			"componentType":5126,
			"count":2868,
			"max":[
				38046.9921875,
				937.5,
				25111.947265625
			],
			"min":[
				-12171.7138671875,
				-1636.6590576171875,
				-16135.04296875
			],
			"type":"VEC3"
		},
		{
			"bufferView":77,
			"componentType":5126,
			"count":2868,
			"type":"VEC3"
		},
		{
			"bufferView":78,
			"componentType":5126,
			"count":2868,
			"type":"VEC2"
		},
		{
			"bufferView":79,
			"componentType":5123,
			"count":5280,
			"type":"SCALAR"
		},
		{
			"bufferView":80,
			"componentType":5126,
			"count":799,
			"max":[
				38566.06640625,
				1986.4691162109375,
				10557.822265625
			],
			"min":[
				-27357.806640625,
				-300.0000305175781,
				-37853.82421875
			],
			"type":"VEC3"
		},
		{
			"bufferView":81,
			"componentType":5126,
			"count":799,
			"type":"VEC3"
		},
		{
			"bufferView":82,
			"componentType":5126,
			"count":799,
			"type":"VEC2"
		},
		{
			"bufferView":83,
			"componentType":5123,
			"count":1479,
			"type":"SCALAR"
		},
		{
			"bufferView":84,
			"componentType":5126,
			"count":334,
			"max":[
				36500,
				900,
				11071.798828125
			],
			"min":[
				-27667.443359375,
				-1299,
				-39653.53125
			],
			"type":"VEC3"
		},
		{
			"bufferView":85,
			"componentType":5126,
			"count":334,
			"type":"VEC3"
		},
		{
			"bufferView":86,
			"componentType":5126,
			"count":334,
			"type":"VEC2"
		},
		{
			"bufferView":87,
			"componentType":5123,
			"count":855,
			"type":"SCALAR"
		},
		{
			"bufferView":88,
			"componentType":5126,
			"count":1293,
			"max":[
				38791.8125,
				2957.481689453125,
				14800
			],
			"min":[
				-27400,
				-12000,
				-38408.30859375
			],
			"type":"VEC3"
		},
		{
			"bufferView":89,
			"componentType":5126,
			"count":1293,
			"type":"VEC3"
		},
		{
			"bufferView":90,
			"componentType":5126,
			"count":1293,
			"type":"VEC2"
		},
		{
			"bufferView":91,
			"componentType":5123,
			"count":3138,
			"type":"SCALAR"
		},
		{
			"bufferView":92,
			"componentType":5126,
			"count":583,
			"max":[
				38796.01171875,
				1625,
				11071.798828125
			],
			"min":[
				-28088.630859375,
				-12000,
				-39244.05078125
			],
			"type":"VEC3"
		},
		{
			"bufferView":93,
			"componentType":5126,
			"count":583,
			"type":"VEC3"
		},
		{
			"bufferView":94,
			"componentType":5126,
			"count":583,
			"type":"VEC2"
		},
		{
			"bufferView":95,
			"componentType":5123,
			"count":1191,
			"type":"SCALAR"
		},
		{
			"bufferView":96,
			"componentType":5126,
			"count":8357,
			"max":[
				38796.01171875,
				3296.437744140625,
				14800
			],
			"min":[
				-27400,
				-7083.078125,
				-39254.25
			],
			"type":"VEC3"
		},
		{
			"bufferView":97,
			"componentType":5126,
			"count":8357,
			"type":"VEC3"
		},
		{
			"bufferView":98,
			"componentType":5126,
			"count":8357,
			"type":"VEC2"
		},
		{
			"bufferView":99,
			"componentType":5123,
			"count":13512,
			"type":"SCALAR"
		},
		{
			"bufferView":100,
			"componentType":5126,
			"count":175,
			"max":[
				79884.78125,
				1636.458740234375,
				58128.453125
			],
			"min":[
				-43066.375,
				-11500,
				-107215.40625
			],
			"type":"VEC3"
		},
		{
			"bufferView":101,
			"componentType":5126,
			"count":175,
			"type":"VEC3"
		},
		{
			"bufferView":102,
			"componentType":5126,
			"count":175,
			"type":"VEC2"
		},
		{
			"bufferView":103,
			"componentType":5123,
			"count":642,
			"type":"SCALAR"
		},
		{
			"bufferView":104,
			"componentType":5126,
			"count":1032,
			"max":[
				52911.81640625,
				10229.7197265625,
				11219.5869140625
			],
			"min":[
				-109486.0234375,
				-12000,
				-73542.734375
			],
			"type":"VEC3"
		},
		{
			"bufferView":105,
			"componentType":5126,
			"count":1032,
			"type":"VEC3"
		},
		{
			"bufferView":106,
			"componentType":5126,
			"count":1032,
			"type":"VEC2"
		},
		{
			"bufferView":107,
			"componentType":5123,
			"count":4140,
			"type":"SCALAR"
		},
		{
			"bufferView":108,
			"componentType":5126,
			"count":800,
			"max":[
				93800.78125,
				5153.01171875,
				56370.28125
			],
			"min":[
				-71198.6640625,
				-7555.89404296875,
				-74817.2109375
			],
			"type":"VEC3"
		},
		{
			"bufferView":109,
			"componentType":5126,
			"count":800,
			"type":"VEC3"
		},
		{
			"bufferView":110,
			"componentType":5126,
			"count":800,
			"type":"VEC2"
		},
		{
			"bufferView":111,
			"componentType":5123,
			"count":4065,
			"type":"SCALAR"
		},
		{
			"bufferView":112,
			"componentType":5126,
			"count":406,
			"max":[
				84023.375,
				5153.01171875,
				51290.26953125
			],
			"min":[
				-62465.6796875,
				-12990.9384765625,
				-69158.6484375
			],
			"type":"VEC3"
		},
		{
			"bufferView":113,
			"componentType":5126,
			"count":406,
			"type":"VEC3"
		},
		{
			"bufferView":114,
			"componentType":5126,
			"count":406,
			"type":"VEC2"
		},
		{
			"bufferView":115,
			"componentType":5123,
			"count":1506,
			"type":"SCALAR"
		},
		{
			"bufferView":116,
			"componentType":5126,
			"count":2329,
			"max":[
				104496.734375,
				19424.517578125,
				53961.56640625
			],
			"min":[
				1387.64111328125,
				-12000,
				-49082.66796875
			],
			"type":"VEC3"
		},
		{
			"bufferView":117,
			"componentType":5126,
			"count":2329,
			"type":"VEC3"
		},
		{
			"bufferView":118,
			"componentType":5126,
			"count":2329,
			"type":"VEC2"
		},
		{
			"bufferView":119,
			"componentType":5123,
			"count":8337,
			"type":"SCALAR"
		},
		{
			"bufferView":120,
			"componentType":5126,
			"count":89,
			"max":[
				128613.0234375,
				35353.13671875,
				11666.1044921875
			],
			"min":[
				104973.9375,
				8095.607421875,
				-15386.98046875
			],
			"type":"VEC3"
		},
		{
			"bufferView":121,
			"componentType":5126,
			"count":89,
			"type":"VEC3"
		},
		{
			"bufferView":122,
			"componentType":5126,
			"count":89,
			"type":"VEC2"
		},
		{
			"bufferView":123,
			"componentType":5123,
			"count":345,
			"type":"SCALAR"
		},
		{
			"bufferView":124,
			"componentType":5126,
			"count":1,
			"max":[
				0
			],
			"min":[
				0
			],
			"type":"SCALAR"
		},
		{
			"bufferView":125,
			"componentType":5126,
			"count":1,
			"type":"VEC3"
		},
		{
			"bufferView":126,
			"componentType":5126,
			"count":1,
			"type":"VEC4"
		},
		{
			"bufferView":127,
			"componentType":5126,
			"count":1,
			"type":"VEC3"
		}
	],
	"bufferViews":[
		{
			"buffer":0,
			"byteLength":216,
			"byteOffset":0,
			"target":34962
		},
		{
			"buffer":0,
			"byteLength":216,
			"byteOffset":216,
			"target":34962
		},
		{
			"buffer":0,
			"byteLength":144,
			"byteOffset":432,
			"target":34962
		},
		{
			"buffer":0,
			"byteLength":108,
			"byteOffset":576,
			"target":34963
		},
		{
			"buffer":0,
			"byteLength":14532,
			"byteOffset":684,
			"target":34962
		},
		{
			"buffer":0,
			"byteLength":14532,
			"byteOffset":15216,
			"target":34962
		},
		{
			"buffer":0,
			"byteLength":9688,
			"byteOffset":29748,
			"target":34962
		},
		{
			"buffer":0,
			"byteLength":9168,
			"byteOffset":39436,
			"target":34963
		},
		{
			"buffer":0,
			"byteLength":17376,
			"byteOffset":48604,
			"target":34962
		},
		{
			"buffer":0,
			"byteLength":17376,
			"byteOffset":65980,
			"target":34962
		},
		{
			"buffer":0,
			"byteLength":11584,
			"byteOffset":83356,
			"target":34962
		},
		{
			"buffer":0,
			"byteLength":7506,
			"byteOffset":94940,
			"target":34963
		},
		{
			"buffer":0,
			"byteLength":3600,
			"byteOffset":102448,
			"target":34962
		},
		{
			"buffer":0,
			"byteLength":3600,
			"byteOffset":106048,
			"target":34962
		},
		{
			"buffer":0,
			"byteLength":2400,
			"byteOffset":109648,
			"target":34962
		},
		{
			"buffer":0,
			"byteLength":2682,
			"byteOffset":112048,
			"target":34963
		},
		{
			"buffer":0,
			"byteLength":648,
			"byteOffset":114732,
			"target":34962
		},
		{
			"buffer":0,
			"byteLength":648,
			"byteOffset":115380,
			"target":34962
		},
		{
			"buffer":0,
			"byteLength":432,
			"byteOffset":116028,
			"target":34962
		},
		{
			"buffer":0,
			"byteLength":414,
			"byteOffset":116460,
			"target":34963
		},
		{
			"buffer":0,
			"byteLength":252,
			"byteOffset":116876,
			"target":34962
		},
		{
			"buffer":0,
			"byteLength":252,
			"byteOffset":117128,
			"target":34962
		},
		{
			"buffer":0,
			"byteLength":168,
			"byteOffset":117380,
			"target":34962
		},
		{
			"buffer":0,
			"byteLength":138,
			"byteOffset":117548,
			"target":34963
		},
		{
			"buffer":0,
			"byteLength":1428,
			"byteOffset":117688,
			"target":34962
		},
		{
			"buffer":0,
			"byteLength":1428,
			"byteOffset":119116,
			"target":34962
		},
		{
			"buffer":0,
			"byteLength":952,
			"byteOffset":120544,
			"target":34962
		},
		{
			"buffer":0,
			"byteLength":840,
			"byteOffset":121496,
			"target":34963
		},
		{
			"buffer":0,
			"byteLength":360,
			"byteOffset":122336,
			"target":34962
		},
		{
			"buffer":0,
			"byteLength":360,
			"byteOffset":122696,
			"target":34962
		},
		{
			"buffer":0,
			"byteLength":240,
			"byteOffset":123056,
			"target":34962
		},
		{
			"buffer":0,
			"byteLength":216,
			"byteOffset":123296,
			"target":34963
		},
		{
			"buffer":0,
			"byteLength":576,
			"byteOffset":123512,
			"target":34962
		},
		{
			"buffer":0,
			"byteLength":576,
			"byteOffset":124088,
			"target":34962
		},
		{
			"buffer":0,
			"byteLength":384,
			"byteOffset":124664,
			"target":34962
		},
		{
			"buffer":0,
			"byteLength":288,
			"byteOffset":125048,
			"target":34963
		},
		{
			"buffer":0,
			"byteLength":84,
			"byteOffset":125336,
			"target":34962
		},
		{
			"buffer":0,
			"byteLength":84,
			"byteOffset":125420,
			"target":34962
		},
		{
			"buffer":0,
			"byteLength":56,
			"byteOffset":125504,
			"target":34962
		},
		{
			"buffer":0,
			"byteLength":36,
			"byteOffset":125560,
			"target":34963
		},
		{
			"buffer":0,
			"byteLength":2544,
			"byteOffset":125596,
			"target":34962
		},
		{
			"buffer":0,
			"byteLength":2544,
			"byteOffset":128140,
			"target":34962
		},
		{
			"buffer":0,
			"byteLength":1696,
			"byteOffset":130684,
			"target":34962
		},
		{
			"buffer":0,
			"byteLength":1854,
			"byteOffset":132380,
			"target":34963
		},
		{
			"buffer":0,
			"byteLength":528,
			"byteOffset":134236,
			"target":34962
		},
		{
			"buffer":0,
			"byteLength":528,
			"byteOffset":134764,
			"target":34962
		},
		{
			"buffer":0,
			"byteLength":352,
			"byteOffset":135292,
			"target":34962
		},
		{
			"buffer":0,
			"byteLength":144,
			"byteOffset":135644,
			"target":34963
		},
		{
			"buffer":0,
			"byteLength":12240,
			"byteOffset":135788,
			"target":34962
		},
		{
			"buffer":0,
			"byteLength":12240,
			"byteOffset":148028,
			"target":34962
		},
		{
			"buffer":0,
			"byteLength":8160,
			"byteOffset":160268,
			"target":34962
		},
		{
			"buffer":0,
			"byteLength":2244,
			"byteOffset":168428,
			"target":34963
		},
		{
			"buffer":0,
			"byteLength":6912,
			"byteOffset":170672,
			"target":34962
		},
		{
			"buffer":0,
			"byteLength":6912,
			"byteOffset":177584,
			"target":34962
		},
		{
			"buffer":0,
			"byteLength":4608,
			"byteOffset":184496,
			"target":34962
		},
		{
			"buffer":0,
			"byteLength":2736,
			"byteOffset":189104,
			"target":34963
		},
		{
			"buffer":0,
			"byteLength":648,
			"byteOffset":191840,
			"target":34962
		},
		{
			"buffer":0,
			"byteLength":648,
			"byteOffset":192488,
			"target":34962
		},
		{
			"buffer":0,
			"byteLength":432,
			"byteOffset":193136,
			"target":34962
		},
		{
			"buffer":0,
			"byteLength":288,
			"byteOffset":193568,
			"target":34963
		},
		{
			"buffer":0,
			"byteLength":1116,
			"byteOffset":193856,
			"target":34962
		},
		{
			"buffer":0,
			"byteLength":1116,
			"byteOffset":194972,
			"target":34962
		},
		{
			"buffer":0,
			"byteLength":744,
			"byteOffset":196088,
			"target":34962
		},
		{
			"buffer":0,
			"byteLength":438,
			"byteOffset":196832,
			"target":34963
		},
		{
			"buffer":0,
			"byteLength":288,
			"byteOffset":197272,
			"target":34962
		},
		{
			"buffer":0,
			"byteLength":288,
			"byteOffset":197560,
			"target":34962
		},
		{
			"buffer":0,
			"byteLength":192,
			"byteOffset":197848,
			"target":34962
		},
		{
			"buffer":0,
			"byteLength":72,
			"byteOffset":198040,
			"target":34963
		},
		{
			"buffer":0,
			"byteLength":1152,
			"byteOffset":198112,
			"target":34962
		},
		{
			"buffer":0,
			"byteLength":1152,
			"byteOffset":199264,
			"target":34962
		},
		{
			"buffer":0,
			"byteLength":768,
			"byteOffset":200416,
			"target":34962
		},
		{
			"buffer":0,
			"byteLength":672,
			"byteOffset":201184,
			"target":34963
		},
		{
			"buffer":0,
			"byteLength":10452,
			"byteOffset":201856,
			"target":34962
		},
		{
			"buffer":0,
			"byteLength":10452,
			"byteOffset":212308,
			"target":34962
		},
		{
			"buffer":0,
			"byteLength":6968,
			"byteOffset":222760,
			"target":34962
		},
		{
			"buffer":0,
			"byteLength":3504,
			"byteOffset":229728,
			"target":34963
		},
		{
			"buffer":0,
			"byteLength":34416,
			"byteOffset":233232,
			"target":34962
		},
		{
			"buffer":0,
			"byteLength":34416,
			"byteOffset":267648,
			"target":34962
		},
		{
			"buffer":0,
			"byteLength":22944,
			"byteOffset":302064,
			"target":34962
		},
		{
			"buffer":0,
			"byteLength":10560,
			"byteOffset":325008,
			"target":34963
		},
		{
			"buffer":0,
			"byteLength":9588,
			"byteOffset":335568,
			"target":34962
		},
		{
			"buffer":0,
			"byteLength":9588,
			"byteOffset":345156,
			"target":34962
		},
		{
			"buffer":0,
			"byteLength":6392,
			"byteOffset":354744,
			"target":34962
		},
		{
			"buffer":0,
			"byteLength":2958,
			"byteOffset":361136,
			"target":34963
		},
		{
			"buffer":0,
			"byteLength":4008,
			"byteOffset":364096,
			"target":34962
		},
		{
			"buffer":0,
			"byteLength":4008,
			"byteOffset":368104,
			"target":34962
		},
		{
			"buffer":0,
			"byteLength":2672,
			"byteOffset":372112,
			"target":34962
		},
		{
			"buffer":0,
			"byteLength":1710,
			"byteOffset":374784,
			"target":34963
		},
		{
			"buffer":0,
			"byteLength":15516,
			"byteOffset":376496,
			"target":34962
		},
		{
			"buffer":0,
			"byteLength":15516,
			"byteOffset":392012,
			"target":34962
		},
		{
			"buffer":0,
			"byteLength":10344,
			"byteOffset":407528,
			"target":34962
		},
		{
			"buffer":0,
			"byteLength":6276,
			"byteOffset":417872,
			"target":34963
		},
		{
			"buffer":0,
			"byteLength":6996,
			"byteOffset":424148,
			"target":34962
		},
		{
			"buffer":0,
			"byteLength":6996,
			"byteOffset":431144,
			"target":34962
		},
		{
			"buffer":0,
			"byteLength":4664,
			"byteOffset":438140,
			"target":34962
		},
		{
			"buffer":0,
			"byteLength":2382,
			"byteOffset":442804,
			"target":34963
		},
		{
			"buffer":0,
			"byteLength":100284,
			"byteOffset":445188,
			"target":34962
		},
		{
			"buffer":0,
			"byteLength":100284,
			"byteOffset":545472,
			"target":34962
		},
		{
			"buffer":0,
			"byteLength":66856,
			"byteOffset":645756,
			"target":34962
		},
		{
			"buffer":0,
			"byteLength":27024,
			"byteOffset":712612,
			"target":34963
		},
		{
			"buffer":0,
			"byteLength":2100,
			"byteOffset":739636,
			"target":34962
		},
		{
			"buffer":0,
			"byteLength":2100,
			"byteOffset":741736,
			"target":34962
		},
		{
			"buffer":0,
			"byteLength":1400,
			"byteOffset":743836,
			"target":34962
		},
		{
			"buffer":0,
			"byteLength":1284,
			"byteOffset":745236,
			"target":34963
		},
		{
			"buffer":0,
			"byteLength":12384,
			"byteOffset":746520,
			"target":34962
		},
		{
			"buffer":0,
			"byteLength":12384,
			"byteOffset":758904,
			"target":34962
		},
		{
			"buffer":0,
			"byteLength":8256,
			"byteOffset":771288,
			"target":34962
		},
		{
			"buffer":0,
			"byteLength":8280,
			"byteOffset":779544,
			"target":34963
		},
		{
			"buffer":0,
			"byteLength":9600,
			"byteOffset":787824,
			"target":34962
		},
		{
			"buffer":0,
			"byteLength":9600,
			"byteOffset":797424,
			"target":34962
		},
		{
			"buffer":0,
			"byteLength":6400,
			"byteOffset":807024,
			"target":34962
		},
		{
			"buffer":0,
			"byteLength":8130,
			"byteOffset":813424,
			"target":34963
		},
		{
			"buffer":0,
			"byteLength":4872,
			"byteOffset":821556,
			"target":34962
		},
		{
			"buffer":0,
			"byteLength":4872,
			"byteOffset":826428,
			"target":34962
		},
		{
			"buffer":0,
			"byteLength":3248,
			"byteOffset":831300,
			"target":34962
		},
		{
			"buffer":0,
			"byteLength":3012,
			"byteOffset":834548,
			"target":34963
		},
		{
			"buffer":0,
			"byteLength":27948,
			"byteOffset":837560,
			"target":34962
		},
		{
			"buffer":0,
			"byteLength":27948,
			"byteOffset":865508,
			"target":34962
		},
		{
			"buffer":0,
			"byteLength":18632,
			"byteOffset":893456,
			"target":34962
		},
		{
			"buffer":0,
			"byteLength":16674,
			"byteOffset":912088,
			"target":34963
		},
		{
			"buffer":0,
			"byteLength":1068,
			"byteOffset":928764,
			"target":34962
		},
		{
			"buffer":0,
			"byteLength":1068,
			"byteOffset":929832,
			"target":34962
		},
		{
			"buffer":0,
			"byteLength":712,
			"byteOffset":930900,
			"target":34962
		},
		{
			"buffer":0,
			"byteLength":690,
			"byteOffset":931612,
			"target":34963
		},
		{
			"buffer":0,
			"byteLength":4,
			"byteOffset":932304
		},
		{
			"buffer":0,
			"byteLength":12,
			"byteOffset":932308
		},
		{
			"buffer":0,
			"byteLength":16,
			"byteOffset":932320
		},
		{
			"buffer":0,
			"byteLength":12,
			"byteOffset":932336
		}
	],
	"samplers":[
		{
			"magFilter":9729,
			"minFilter":9987
		}
	],
	"buffers":[
		{
			"byteLength":932348,
			"uri":"Untitled.bin"
		}
	]
}
