{
	"asset":{
		"generator":"Khronos glTF Blender I/O v5.1.19",
		"version":"2.0"
	},
	"scene":0,
	"scenes":[
		{
			"name":"Scene",
			"nodes":[
				0
			]
		}
	],
	"nodes":[
		{
			"mesh":0,
			"name":"Utah Teapot",
			"rotation":[
				0.09058583527803421,
				-0.4037219285964966,
				0.04205703362822533,
				0.9094141125679016
			]
		}
	],
	"meshes":[
		{
			"name":"Utah Teapot",
			"primitives":[
				{
					"attributes":{
						"POSITION":0,
						"NORMAL":1,
						"TEXCOORD_0":2
					},
					"indices":3
				}
			]
		}
	],
	"accessors":[
		{
			"bufferView":0,
			"componentType":5126,
			"count":17456,
			"max":[
				3.4335150718688965,
				3.1500000953674316,
				2
			],
			"min":[
				-3,
				0,
				-2
			],
			"type":"VEC3"
		},
		{
			"bufferView":1,
			"componentType":5126,
			"count":17456,
			"type":"VEC3"
		},
		{
			"bufferView":2,
			"componentType":5126,
			"count":17456,
			"type":"VEC2"
		},
		{
			"bufferView":3,
			"componentType":5123,
			"count":100386,
			"type":"SCALAR"
		}
	],
	"bufferViews":[
		{
			"buffer":0,
			"byteLength":209472,
			"byteOffset":0,
			"target":34962
		},
		{
			"buffer":0,
			"byteLength":209472,
			"byteOffset":209472,
			"target":34962
		},
		{
			"buffer":0,
			"byteLength":139648,
			"byteOffset":418944,
			"target":34962
		},
		{
			"buffer":0,
			"byteLength":200772,
			"byteOffset":558592,
			"target":34963
		}
	],
	"buffers":[
		{
			"byteLength":759364,
			"uri":"Untitled.bin"
		}
	]
}
