{
	"asset":{
		"generator":"Khronos glTF Blender I/O v5.1.19",
		"version":"2.0"
	},
	"scene":0,
	"scenes":[
		{
			"name":"Scene",
			"nodes":[
				14
			]
		}
	],
	"nodes":[
		{
			"name":"LB_finger",
			"rotation":[
				0.20365296304225922,
				-0.6771532297134399,
				-0.572273313999176,
				0.41532179713249207
			],
			"scale":[
				1,
				1.000000238418579,
				1
			],
			"translation":[
				66.86931610107422,
				-126.7222671508789,
				12.993217468261719
			]
		},
		{
			"name":"LF_finger",
			"rotation":[
				-2.0775819109530858e-07,
				2.2382273812127096e-07,
				0.442660391330719,
				0.8966893553733826
			],
			"scale":[
				1,
				1,
				0.9999999403953552
			],
			"translation":[
				163.672119140625,
				-0.0002861879765987396,
				-2.8371199732646346e-05
			]
		},
		{
			"children":[
				0,
				1
			],
			"name":"L_heel",
			"rotation":[
				6.8125410734865e-07,
				-1.1898787732889105e-08,
				-0.06973915547132492,
				0.9975652694702148
			],
			"scale":[
				0.9999999403953552,
				0.9999999403953552,
				0.9999999403953552
			],
			"translation":[
				249.74928283691406,
				-0.00018244050443172455,
				1.5193596482276917e-05
			]
		},
		{
			"children":[
				2
			],
			"name":"L_knee",
			"rotation":[
				-1.8896976428095513e-08,
				-5.621347440865065e-07,
				0.7684293985366821,
				0.6399345397949219
			],
			"translation":[
				284.1493225097656,
				0.00026953406631946564,
				1.4113262295722961e-05
			]
		},
		{
			"children":[
				3
			],
			"name":"L_hipJ",
			"rotation":[
				2.207646321039647e-05,
				-2.2546175387105905e-05,
				0.9001831412315369,
				0.43551158905029297
			],
			"scale":[
				0.9999996423721313,
				0.9999998807907104,
				1
			],
			"translation":[
				-3.34959477186203e-05,
				-4.2745377868413925e-06,
				-230.29002380371094
			]
		},
		{
			"name":"RB_finger",
			"rotation":[
				-0.20365402102470398,
				-0.6771528720855713,
				0.5722736120223999,
				0.4153215289115906
			],
			"scale":[
				1,
				0.9999998807907104,
				0.9999998807907104
			],
			"translation":[
				66.86946105957031,
				126.7221450805664,
				12.993157386779785
			]
		},
		{
			"name":"RF_finger",
			"rotation":[
				1.6760006360527768e-07,
				-1.2588834863436205e-07,
				-0.4426611065864563,
				0.8966889977455139
			],
			"scale":[
				1.0000001192092896,
				1.0000001192092896,
				1.0000001192092896
			],
			"translation":[
				163.67214965820312,
				6.002187728881836e-05,
				-1.7570564523339272e-06
			]
		},
		{
			"children":[
				5,
				6
			],
			"name":"R_heel",
			"rotation":[
				-3.246378241783532e-07,
				1.2552487049788397e-08,
				0.06973922252655029,
				0.9975652694702148
			],
			"scale":[
				0.9999999403953552,
				1,
				1.0000001192092896
			],
			"translation":[
				249.74932861328125,
				-6.318837404251099e-05,
				1.3373792171478271e-05
			]
		},
		{
			"children":[
				7
			],
			"name":"R_knee",
			"rotation":[
				-6.709622539347038e-05,
				6.728194421157241e-05,
				-0.7684597373008728,
				0.6398981213569641
			],
			"scale":[
				0.9999999403953552,
				1,
				1.0000001192092896
			],
			"translation":[
				284.1492004394531,
				-8.558481931686401e-05,
				1.6432837583124638e-05
			]
		},
		{
			"children":[
				8
			],
			"name":"R_hipJ",
			"rotation":[
				-0.4355114996433258,
				-0.9001831412315369,
				2.0677696738857776e-05,
				4.3099345930386335e-05
			],
			"scale":[
				0.9999998807907104,
				0.9999998211860657,
				1
			],
			"translation":[
				-3.159232437610626e-05,
				-1.2891599908471107e-05,
				230.29002380371094
			]
		},
		{
			"name":"head",
			"rotation":[
				-3.8657393730545664e-08,
				-3.865695674676317e-08,
				-0.7070727944374084,
				0.7071407437324524
			],
			"translation":[
				352.44482421875,
				-2.333669544896111e-05,
				-9.772139009101011e-08
			]
		},
		{
			"children":[
				10
			],
			"name":"neck",
			"rotation":[
				-1.1149585699143927e-09,
				-1.1249078057939954e-10,
				0.02775268256664276,
				0.9996148347854614
			],
			"scale":[
				0.9999998807907104,
				0.9999999403953552,
				1
			],
			"translation":[
				191.68788146972656,
				0.0002785804681479931,
				1.770354174368549e-08
			]
		},
		{
			"children":[
				4,
				9,
				11
			],
			"name":"waist",
			"rotation":[
				-0.48452574014663696,
				-0.5150095820426941,
				0.48447635769844055,
				0.5150560140609741
			],
			"scale":[
				0.9999999403953552,
				0.9999998211860657,
				0.9999998211860657
			],
			"translation":[
				0,
				483.90087890625,
				-47.70878601074219
			]
		},
		{
			"mesh":0,
			"name":"skycannon",
			"skin":0
		},
		{
			"children":[
				13,
				12
			],
			"name":"skycannon_armature",
			"scale":[
				0.034031905233860016,
				0.034031905233860016,
				0.034031905233860016
			]
		}
	],
	"materials":[
		{
			"doubleSided":true,
			"name":"aa_SK_normal_v.002",
			"pbrMetallicRoughness":{
				"baseColorTexture":{
					"index":0
				},
				"metallicFactor":0,
				"roughnessFactor":0.5
			}
		}
	],
	"meshes":[
		{
			"name":"skycannon",
			"primitives":[
				{
					"attributes":{
						"POSITION":0,
						"NORMAL":1,
						"TEXCOORD_0":2,
						"COLOR_0":3,
						"COLOR_1":4,
						"JOINTS_0":5,
						"WEIGHTS_0":6
					},
					"indices":7,
					"material":0
				}
			]
		}
	],
	"textures":[
		{
			"sampler":0,
			"source":0
		}
	],
	"images":[
		{
			"mimeType":"image/png",
			"name":"L_sk_normal_03",
			"uri":"L_sk_normal_03.png"
		}
	],
	"skins":[
		{
			"inverseBindMatrices":8,
			"joints":[
				12,
				4,
				3,
				2,
				0,
				1,
				9,
				8,
				7,
				5,
				6,
				11,
				10
			],
			"name":"skycannon_armature"
		}
	],
	"accessors":[
		{
			"bufferView":0,
			"componentType":5126,
			"count":2019,
			"max":[
				13.701108932495117,
				45.182037353515625,
				20.802499771118164
			],
			"min":[
				-13.704595565795898,
				-0.01082130242139101,
				-18.310510635375977
			],
			"type":"VEC3"
		},
		{
			"bufferView":1,
			"componentType":5126,
			"count":2019,
			"type":"VEC3"
		},
		{
			"bufferView":2,
			"componentType":5126,
			"count":2019,
			"type":"VEC2"
		},
		{
			"bufferView":3,
			"componentType":5121,
			"count":2019,
			"normalized":true,
			"type":"VEC4"
		},
		{
			"bufferView":4,
			"componentType":5123,
			"count":2019,
			"normalized":true,
			"type":"VEC4"
		},
		{
			"bufferView":5,
			"componentType":5121,
			"count":2019,
			"type":"VEC4"
		},
		{
			"bufferView":6,
			"componentType":5126,
			"count":2019,
			"type":"VEC4"
		},
		{
			"bufferView":7,
			"componentType":5123,
			"count":4320,
			"type":"SCALAR"
		},
		{
			"bufferView":8,
			"componentType":5126,
			"count":13,
			"type":"MAT4"
		}
	],
	"bufferViews":[
		{
			"buffer":0,
			"byteLength":24228,
			"byteOffset":0,
			"target":34962
		},
		{
			"buffer":0,
			"byteLength":24228,
			"byteOffset":24228,
			"target":34962
		},
		{
			"buffer":0,
			"byteLength":16152,
			"byteOffset":48456,
			"target":34962
		},
		{
			"buffer":0,
			"byteLength":8076,
			"byteOffset":64608,
			"target":34962
		},
		{
			"buffer":0,
			"byteLength":16152,
			"byteOffset":72684,
			"target":34962
		},
		{
			"buffer":0,
			"byteLength":8076,
			"byteOffset":88836,
			"target":34962
		},
		{
			"buffer":0,
			"byteLength":32304,
			"byteOffset":96912,
			"target":34962
		},
		{
			"buffer":0,
			"byteLength":8640,
			"byteOffset":129216,
			"target":34963
		},
		{
			"buffer":0,
			"byteLength":832,
			"byteOffset":137856
		}
	],
	"samplers":[
		{
			"magFilter":9729,
			"minFilter":9987
		}
	],
	"buffers":[
		{
			"byteLength":138688,
			"uri":"canon.bin"
		}
	]
}
